<?xml version="1.0" encoding="UTF-8" standalone="no"?>
<svg
   version="1.0"
   preserveAspectRatio="xMidYMid"
   viewBox="534.53318 220.32 361.61502 361.615"
   zoomAndPan="magnify"
   width="361.61499"
   height="361.61499"
   id="svg34"
   sodipodi:docname="logo.svg"
   inkscape:version="1.3.2 (091e20e, 2023-11-25, custom)"
   inkscape:export-filename="logo.png"
   inkscape:export-xdpi="271.83304"
   inkscape:export-ydpi="271.83304"
   xmlns:inkscape="http://www.inkscape.org/namespaces/inkscape"
   xmlns:sodipodi="http://sodipodi.sourceforge.net/DTD/sodipodi-0.dtd"
   xmlns="http://www.w3.org/2000/svg"
   xmlns:svg="http://www.w3.org/2000/svg">
  <sodipodi:namedview
     id="namedview34"
     pagecolor="#ffffff"
     bordercolor="#000000"
     borderopacity="0.25"
     inkscape:showpageshadow="2"
     inkscape:pageopacity="0.0"
     inkscape:pagecheckerboard="0"
     inkscape:deskcolor="#d1d1d1"
     inkscape:zoom="3.1757636"
     inkscape:cx="137.76214"
     inkscape:cy="270.32868"
     inkscape:window-width="3440"
     inkscape:window-height="1369"
     inkscape:window-x="-8"
     inkscape:window-y="-8"
     inkscape:window-maximized="1"
     inkscape:current-layer="svg34" />
  <defs
     id="defs17" />
  <path
     style="fill:#000000;stroke-width:0.44552"
     d="m 705.99437,581.82824 c -26.71534,-1.99915 -47.22279,-7.28153 -69.13183,-17.80726 -28.13797,-13.51826 -53.1332,-35.0461 -70.88271,-61.04968 -30.38815,-44.51959 -39.29394,-100.23504 -24.34791,-152.32291 6.27312,-21.86226 18.15181,-44.76453 32.51268,-62.68493 4.39083,-5.47914 5.81697,-7.05117 13.12009,-14.46215 28.60173,-29.02413 65.06036,-46.89678 106.7062,-52.3092 8.94717,-1.16281 33.80299,-1.16281 42.75017,0 35.83827,4.65765 67.225,18.25455 94.4872,40.93233 7.39372,6.1504 19.15162,18.15946 25.24446,25.78372 4.96907,6.21804 12.4376,17.16525 15.96467,23.40065 21.12894,37.35333 28.38818,79.96251 20.81382,122.16971 -8.59483,47.89359 -36.83502,90.81071 -77.68952,118.06611 -24.58422,16.40096 -51.18185,26.08622 -80.82454,29.43145 -5.78391,0.65273 -24.11873,1.19669 -28.72278,0.85216 z M 731.88538,521.724 c 22.77127,-3.35434 42.66849,-12.01304 60.27731,-26.23095 11.80795,-9.53413 26.13605,-26.86399 28.4735,-34.43876 1.15199,-3.73318 1.25182,-10.4897 0.20764,-14.05223 -2.06961,-7.06104 -7.55091,-12.70541 -14.75785,-15.19685 l -3.0131,-1.04164 h -87.50425 -87.50425 l -3.11721,0.99295 c -7.17057,2.2841 -12.91607,8.2553 -15.0982,15.69127 -0.92282,3.14466 -0.92261,9.39792 4.3e-4,12.54141 1.7851,6.07934 8.77695,16.01299 17.93628,25.48291 9.7988,10.13107 20.24263,17.92378 31.99933,23.87645 15.20534,7.69878 28.14753,11.3593 46.65468,13.19559 3.76694,0.37377 21.14256,-0.18628 25.44569,-0.82015 z M 593.88274,398.11409 c -0.0857,-1.65476 -0.15578,-0.30087 -0.15578,3.00865 0,3.30952 0.0701,4.66342 0.15578,3.00866 0.0857,-1.65476 0.0857,-4.36255 0,-6.01731 z m 243.1402,0.68353 c -0.0902,-1.29526 -0.16502,-0.34923 -0.16618,2.10226 -10e-4,2.4515 0.0727,3.51125 0.16407,2.35501 0.0914,-1.15625 0.0924,-3.16201 0.002,-4.45727 z m -32.44978,-28.1861 c 4.09195,-1.09011 7.25714,-2.92774 10.34935,-6.00855 3.01234,-3.00125 4.57821,-5.56965 5.94736,-9.75514 0.60785,-1.85816 0.74029,-3.49666 0.6125,-7.57735 -0.14799,-4.72592 -0.2919,-5.47986 -1.55897,-8.16763 -4.35978,-9.2482 -17.33696,-24.38026 -28.52088,-33.25683 -16.62735,-13.19697 -34.63691,-21.20714 -56.46272,-25.11311 -6.68921,-1.19711 -24.61675,-1.68646 -32.39161,-0.88417 -27.48513,2.83624 -53.47435,15.26184 -73.18399,34.98973 -8.4641,8.47196 -16.73305,19.44109 -18.92757,25.1083 -1.19885,3.09596 -1.65029,9.95535 -0.88903,13.50827 1.71448,8.00176 8.42184,14.90383 16.6351,17.11803 3.51591,0.94783 174.83829,0.98477 178.39046,0.0384 z"
     id="path48" />
</svg>
